<?xml version="1.0" encoding="UTF-8" standalone="no"?>
<!-- Created with Inkscape (http://www.inkscape.org/) -->
<svg
   xmlns:svg="http://www.w3.org/2000/svg"
   xmlns="http://www.w3.org/2000/svg"
   xmlns:xlink="http://www.w3.org/1999/xlink"
   version="1.0"
   width="1042.4287"
   height="649.28418"
   id="svg2">
  <defs
     id="defs5">
    <radialGradient
       cx="-252.86484"
       cy="37.066708"
       r="20.618591"
       fx="-252.86484"
       fy="37.066708"
       id="radialGradient3526"
       xlink:href="#linearGradient3750"
       gradientUnits="userSpaceOnUse"
       gradientTransform="matrix(0.743425,-5.604982e-2,8.091049e-2,1.073167,-67.87795,-14.89615)" />
    <radialGradient
       cx="-239.46201"
       cy="36.402817"
       r="20.618591"
       fx="-239.46201"
       fy="36.402817"
       id="radialGradient3524"
       xlink:href="#linearGradient3750"
       gradientUnits="userSpaceOnUse"
       gradientTransform="matrix(0.665589,2.606505e-2,-4.179778e-2,1.067336,-78.55713,5.568977)" />
    <radialGradient
       cx="-240.84554"
       cy="35.374088"
       r="20.618591"
       fx="-240.84554"
       fy="35.374088"
       id="radialGradient3522"
       xlink:href="#linearGradient3750"
       gradientUnits="userSpaceOnUse"
       gradientTransform="matrix(0.77289,-3.195547e-2,4.17313e-2,1.009333,-56.17467,-6.573855)" />
    <radialGradient
       cx="-252.41196"
       cy="36.378464"
       r="20.618591"
       fx="-252.41196"
       fy="36.378464"
       id="radialGradient3520"
       xlink:href="#linearGradient3750"
       gradientUnits="userSpaceOnUse"
       gradientTransform="matrix(0.724089,-3.483884e-2,5.111026e-2,1.062273,-71.76233,-11.22647)" />
    <radialGradient
       cx="-238.19627"
       cy="36.326488"
       r="20.618591"
       fx="-238.19627"
       fy="36.326488"
       id="radialGradient3518"
       xlink:href="#linearGradient3750"
       gradientUnits="userSpaceOnUse"
       gradientTransform="matrix(0.691685,3.805722e-2,-5.029242e-2,0.914058,-74.14687,11.98968)" />
    <radialGradient
       cx="-238.03877"
       cy="37.578621"
       r="20.618591"
       fx="-238.03877"
       fy="37.578621"
       id="radialGradient3516"
       xlink:href="#linearGradient3750"
       gradientUnits="userSpaceOnUse"
       gradientTransform="matrix(0.733951,0,0,1.05083,-65.31839,0.241052)" />
    <linearGradient
       id="linearGradient3750">
      <stop
         id="stop3752"
         style="stop-color:#000000;stop-opacity:1"
         offset="0" />
      <stop
         id="stop3754"
         style="stop-color:#ffb030;stop-opacity:1"
         offset="1" />
    </linearGradient>
  </defs>
  <g
     transform="matrix(1.0556548,0,0,1.0556548,-5.9567375,-4.5433353)"
     id="g2643">
    <g
       id="g1533">
      <rect
         width="987.47119"
         height="615.05353"
         rx="5.6324816"
         ry="5.7530341"
         x="5.6426945"
         y="4.3038077"
         id="rect1308"
         style="opacity:1;fill:#0070b0;fill-opacity:1;fill-rule:nonzero;stroke:none;stroke-width:3.54330707;stroke-linecap:round;stroke-linejoin:round;stroke-miterlimit:4;stroke-dasharray:none;stroke-dashoffset:0;stroke-opacity:1" />
    </g>
    <g
       transform="translate(0,24.308799)"
       id="g2639">
      <path
         d="M 454.9162,243.81353 C 433.57817,247.48907 413.8445,259.73361 397.62825,270.5303 C 381.90658,278.96916 360.98389,287.87119 346.39997,284.03958 C 339.93946,284.13752 325.84979,279.08028 324.02274,280.96699 C 322.14978,285.55097 327.59917,292.01482 327.28142,295.70737 C 327.24028,296.86276 316.66018,299.32084 314.84761,300.13594 C 314.47883,303.23828 325.04674,306.53981 323.8524,308.75298 C 312.38876,318.11494 296.06061,324.49212 296.38525,340.73868 C 291.67014,348.85378 288.37889,358.16792 280.04284,363.23381 C 276.64205,364.85684 278.24295,371.89918 278.87247,371.96329 C 283.84637,372.69027 293.92567,377.67115 293.72841,381.64962 C 308.63899,378.76335 326.55133,378.78308 331.91789,385.16545 C 339.56232,380.4095 358.42936,385.14012 369.94686,379.91168 C 385.89723,372.52844 404.951,386.25657 406.72993,396.26044 C 404.87181,414.96827 411.63844,408.11162 409.95145,425.64741 C 398.57178,441.74499 394.58115,456.02581 385.00765,464.92732 C 379.84696,466.93477 372.39928,467.32377 370.69681,468.39211 C 367.38876,473.525 375.0046,481.32314 379.5897,483.85287 C 387.79449,485.67065 395.99393,485.5672 408.32775,484.63229 C 422.03581,476.15826 434.67908,463.61046 445.17845,447.31663 C 447.57983,438.09321 456.47326,407.81556 459.54547,412.27825 C 487.01352,434.80319 488.24589,445.02408 485.62527,468.42443 C 480.54401,470.45483 469.81771,474.0185 466.90722,480.82865 C 465.76559,487.02606 470.47557,488.62922 479.42791,491.53857 C 484.69124,493.15028 499.11759,487.16628 508.49388,486.02716 C 520.02057,457.39977 541.07421,459.49901 528.69233,431.8177 C 526.43341,426.30893 520.02274,414.64082 524.32629,404.8975 C 537.56251,403.11881 559.3785,408.48834 569.96055,410.6909 C 574.64674,417.99681 586.36024,435.32322 578.07875,462.96451 C 573.25543,469.94812 561.28017,473.71693 556.384,477.74898 C 551.33292,481.1313 561.76967,487.47716 564.40716,489.86726 C 570.70643,491.15765 588.76098,490.54597 593.63867,489.79122 C 606.39236,479.33005 614.68139,467.50479 626.83623,451.94409 C 626.18148,440.34217 628.85503,412.93283 634.49896,416.95479 C 645.79248,426.08112 657.49588,427.4358 658.43295,444.31298 C 657.67178,453.08639 662.05077,468.50193 661.77957,471.74013 C 652.88001,477.03096 632.59206,479.99002 638.74301,485.53923 C 645.56665,502.73209 665.67138,498.03789 681.15661,492.63246 C 684.47235,491.6305 685.32217,487.059 686.94336,481.91548 C 692.84406,463.19444 704.30025,452.15516 714.2377,431.61571 C 723.0287,417.1647 720.23623,411.37529 715.69754,392.49725 C 713.30618,380.25499 718.2502,370.29025 720.8145,363.94062 C 715.74726,342.06089 720.74084,313.65227 690.29662,289.80831 C 674.43998,277.6265 660.07214,265.34542 636.87368,253.65306 C 606.96995,238.36954 583.58527,241.51463 556.72145,247.24422 C 508.04706,256.7196 462.89766,241.57433 454.9162,243.81353 z"
         id="path2579"
         style="fill:#000000;fill-opacity:1;fill-rule:evenodd;stroke:none;stroke-width:1px;stroke-linecap:butt;stroke-linejoin:miter;stroke-opacity:1" />
      <path
         d="M 464.35207,78.845087 C 478.89762,96.807816 487.41693,115.40885 489.82044,134.17093 C 469.14645,132.38632 449.01715,124.50341 432.87755,110.3196 L 432.87755,180.37206 C 449.20491,164.69484 469.45423,155.46417 490.16695,153.14227 C 488.36055,172.89171 479.78588,192.645 464.35207,211.84657 L 534.40453,211.84657 C 518.81854,192.72113 510.22154,172.85248 508.50302,152.91126 C 529.38078,154.71977 549.67862,163.69909 565.87904,180.37206 L 565.87904,110.3196 C 549.73179,124.16842 529.59158,132.1428 508.90728,134.0843 C 511.36099,115.35697 519.88732,96.762105 534.40453,78.845087 L 464.35207,78.845087 z"
         id="rect3333"
         style="fill:#f0a014;fill-opacity:1;fill-rule:evenodd;stroke:#000000;stroke-width:2.77206755;stroke-linecap:round;stroke-linejoin:round;stroke-miterlimit:4;stroke-dasharray:none;stroke-dashoffset:0;stroke-opacity:1" />
    </g>
  </g>
</svg>
